<svg id="visual" viewBox="0 0 960 150" width="960" height="150" xmlns="http://www.w3.org/2000/svg" xmlns:xlink="http://www.w3.org/1999/xlink" version="1.1"><rect x="0" y="0" width="960" height="150" fill="#1e1e2e"></rect><path d="M0 120L14.5 118.8C29 117.7 58 115.3 87.2 114C116.3 112.7 145.7 112.3 174.8 115C204 117.7 233 123.3 262 125.7C291 128 320 127 349 125C378 123 407 120 436.2 120.8C465.3 121.7 494.7 126.3 523.8 126.8C553 127.3 582 123.7 611 124.2C640 124.7 669 129.3 698 130.2C727 131 756 128 785.2 126.7C814.3 125.3 843.7 125.7 872.8 125C902 124.3 931 122.7 945.5 121.8L960 121L960 0L945.5 0C931 0 902 0 872.8 0C843.7 0 814.3 0 785.2 0C756 0 727 0 698 0C669 0 640 0 611 0C582 0 553 0 523.8 0C494.7 0 465.3 0 436.2 0C407 0 378 0 349 0C320 0 291 0 262 0C233 0 204 0 174.8 0C145.7 0 116.3 0 87.2 0C58 0 29 0 14.5 0L0 0Z" fill="#1e1e2e"></path><path d="M0 107L14.5 104.3C29 101.7 58 96.3 87.2 96.3C116.3 96.3 145.7 101.7 174.8 102.7C204 103.7 233 100.3 262 98.7C291 97 320 97 349 97.7C378 98.3 407 99.7 436.2 102C465.3 104.3 494.7 107.7 523.8 105.8C553 104 582 97 611 96.2C640 95.3 669 100.7 698 100.7C727 100.7 756 95.3 785.2 94C814.3 92.7 843.7 95.3 872.8 98.7C902 102 931 106 945.5 108L960 110L960 0L945.5 0C931 0 902 0 872.8 0C843.7 0 814.3 0 785.2 0C756 0 727 0 698 0C669 0 640 0 611 0C582 0 553 0 523.8 0C494.7 0 465.3 0 436.2 0C407 0 378 0 349 0C320 0 291 0 262 0C233 0 204 0 174.8 0C145.7 0 116.3 0 87.2 0C58 0 29 0 14.5 0L0 0Z" fill="#222333"></path><path d="M0 74L14.5 76C29 78 58 82 87.2 81.3C116.3 80.7 145.7 75.3 174.8 72.2C204 69 233 68 262 69.3C291 70.7 320 74.3 349 74.3C378 74.3 407 70.7 436.2 69.2C465.3 67.7 494.7 68.3 523.8 70C553 71.7 582 74.3 611 73C640 71.7 669 66.3 698 63C727 59.7 756 58.3 785.2 63.3C814.3 68.3 843.7 79.7 872.8 83.7C902 87.7 931 84.3 945.5 82.7L960 81L960 0L945.5 0C931 0 902 0 872.8 0C843.7 0 814.3 0 785.2 0C756 0 727 0 698 0C669 0 640 0 611 0C582 0 553 0 523.8 0C494.7 0 465.3 0 436.2 0C407 0 378 0 349 0C320 0 291 0 262 0C233 0 204 0 174.8 0C145.7 0 116.3 0 87.2 0C58 0 29 0 14.5 0L0 0Z" fill="#272839"></path><path d="M0 48L14.5 47C29 46 58 44 87.2 43.2C116.3 42.3 145.7 42.7 174.8 44.5C204 46.3 233 49.7 262 52.8C291 56 320 59 349 59.2C378 59.3 407 56.7 436.2 56.2C465.3 55.7 494.7 57.3 523.8 59.2C553 61 582 63 611 59.5C640 56 669 47 698 46.5C727 46 756 54 785.2 53.8C814.3 53.7 843.7 45.3 872.8 42.8C902 40.3 931 43.7 945.5 45.3L960 47L960 0L945.5 0C931 0 902 0 872.8 0C843.7 0 814.3 0 785.2 0C756 0 727 0 698 0C669 0 640 0 611 0C582 0 553 0 523.8 0C494.7 0 465.3 0 436.2 0C407 0 378 0 349 0C320 0 291 0 262 0C233 0 204 0 174.8 0C145.7 0 116.3 0 87.2 0C58 0 29 0 14.5 0L0 0Z" fill="#2c2d3e"></path><path d="M0 12L14.5 16.7C29 21.3 58 30.7 87.2 31.5C116.3 32.3 145.7 24.7 174.8 20.3C204 16 233 15 262 16.2C291 17.3 320 20.7 349 19.5C378 18.3 407 12.7 436.2 12.3C465.3 12 494.7 17 523.8 21.8C553 26.7 582 31.3 611 29.8C640 28.3 669 20.7 698 16C727 11.3 756 9.7 785.2 11.3C814.3 13 843.7 18 872.8 20.2C902 22.3 931 21.7 945.5 21.3L960 21L960 0L945.5 0C931 0 902 0 872.8 0C843.7 0 814.3 0 785.2 0C756 0 727 0 698 0C669 0 640 0 611 0C582 0 553 0 523.8 0C494.7 0 465.3 0 436.2 0C407 0 378 0 349 0C320 0 291 0 262 0C233 0 204 0 174.8 0C145.7 0 116.3 0 87.2 0C58 0 29 0 14.5 0L0 0Z" fill="#313244"></path></svg>