<svg xmlns="http://www.w3.org/2000/svg" xmlns:xlink="http://www.w3.org/1999/xlink" id="visual" viewBox="0 0 960 150" width="960" height="150" version="1.1">
	<path d="M0 27L9.3 28C18.7 29 37.3 31 56.2 32.2C75 33.3 94 33.7 112.8 42.8C131.7 52 150.3 70 169.2 77C188 84 207 80 225.8 69.3C244.7 58.7 263.3 41.3 282.2 33.7C301 26 320 28 338.8 36.5C357.7 45 376.3 60 395.2 60.2C414 60.3 433 45.7 451.8 43.2C470.7 40.7 489.3 50.3 508.2 58.7C527 67 546 74 564.8 73.7C583.7 73.3 602.3 65.7 621.2 61.2C640 56.7 659 55.3 677.8 49.2C696.7 43 715.3 32 734.2 36.2C753 40.3 772 59.7 790.8 60.8C809.7 62 828.3 45 847.2 37.5C866 30 885 32 903.8 38.8C922.7 45.7 941.3 57.3 950.7 63.2L960 69L960 0L950.7 0C941.3 0 922.7 0 903.8 0C885 0 866 0 847.2 0C828.3 0 809.7 0 790.8 0C772 0 753 0 734.2 0C715.3 0 696.7 0 677.8 0C659 0 640 0 621.2 0C602.3 0 583.7 0 564.8 0C546 0 527 0 508.2 0C489.3 0 470.7 0 451.8 0C433 0 414 0 395.2 0C376.3 0 357.7 0 338.8 0C320 0 301 0 282.2 0C263.3 0 244.7 0 225.8 0C207 0 188 0 169.2 0C150.3 0 131.7 0 112.8 0C94 0 75 0 56.2 0C37.3 0 18.7 0 9.3 0L0 0Z" fill="#09081b" />
	<path d="M0 124L9.3 119C18.7 114 37.3 104 56.2 106.5C75 109 94 124 112.8 128.3C131.7 132.7 150.3 126.3 169.2 125.2C188 124 207 128 225.8 128.5C244.7 129 263.3 126 282.2 123C301 120 320 117 338.8 114.2C357.7 111.3 376.3 108.7 395.2 105.3C414 102 433 98 451.8 99.8C470.7 101.7 489.3 109.3 508.2 110.7C527 112 546 107 564.8 105.5C583.7 104 602.3 106 621.2 104C640 102 659 96 677.8 93.5C696.7 91 715.3 92 734.2 98.2C753 104.3 772 115.7 790.8 119.2C809.7 122.7 828.3 118.3 847.2 120.2C866 122 885 130 903.8 126.2C922.7 122.3 941.3 106.7 950.7 98.8L960 91L960 67L950.7 61.2C941.3 55.3 922.7 43.7 903.8 36.8C885 30 866 28 847.2 35.5C828.3 43 809.7 60 790.8 58.8C772 57.7 753 38.3 734.2 34.2C715.3 30 696.7 41 677.8 47.2C659 53.3 640 54.7 621.2 59.2C602.3 63.7 583.7 71.3 564.8 71.7C546 72 527 65 508.2 56.7C489.3 48.3 470.7 38.7 451.8 41.2C433 43.7 414 58.3 395.2 58.2C376.3 58 357.7 43 338.8 34.5C320 26 301 24 282.2 31.7C263.3 39.3 244.7 56.7 225.8 67.3C207 78 188 82 169.2 75C150.3 68 131.7 50 112.8 40.8C94 31.7 75 31.3 56.2 30.2C37.3 29 18.7 27 9.3 26L0 25Z" fill="#080619" />
	<path d="M0 151L9.3 151C18.7 151 37.3 151 56.2 151C75 151 94 151 112.8 151C131.7 151 150.3 151 169.2 151C188 151 207 151 225.8 151C244.7 151 263.3 151 282.2 151C301 151 320 151 338.8 151C357.7 151 376.3 151 395.2 151C414 151 433 151 451.8 151C470.7 151 489.3 151 508.2 151C527 151 546 151 564.8 151C583.7 151 602.3 151 621.2 151C640 151 659 151 677.8 151C696.7 151 715.3 151 734.2 151C753 151 772 151 790.8 151C809.7 151 828.3 151 847.2 151C866 151 885 151 903.8 151C922.7 151 941.3 151 950.7 151L960 151L960 89L950.7 96.8C941.3 104.7 922.7 120.3 903.8 124.2C885 128 866 120 847.2 118.2C828.3 116.3 809.7 120.7 790.8 117.2C772 113.7 753 102.3 734.2 96.2C715.3 90 696.7 89 677.8 91.5C659 94 640 100 621.2 102C602.3 104 583.7 102 564.8 103.5C546 105 527 110 508.2 108.7C489.3 107.3 470.7 99.7 451.8 97.8C433 96 414 100 395.2 103.3C376.3 106.7 357.7 109.3 338.8 112.2C320 115 301 118 282.2 121C263.3 124 244.7 127 225.8 126.5C207 126 188 122 169.2 123.2C150.3 124.3 131.7 130.7 112.8 126.3C94 122 75 107 56.2 104.5C37.3 102 18.7 112 9.3 117L0 122Z" fill="#060516" />
</svg>
