<svg id="visual" viewBox="0 0 960 150" width="960" height="150" xmlns="http://www.w3.org/2000/svg" xmlns:xlink="http://www.w3.org/1999/xlink" version="1.1">
	<rect x="0" y="0" width="960" height="150" fill="#eff1f5">
	</rect>
	<path d="M0 115L12.3 114.7C24.7 114.3 49.3 113.7 74 114.5C98.7 115.3 123.3 117.7 148 121.7C172.7 125.7 197.3 131.3 221.8 134.5C246.3 137.7 270.7 138.3 295.2 133.8C319.7 129.3 344.3 119.7 369 116.7C393.7 113.7 418.3 117.3 443 120.8C467.7 124.3 492.3 127.7 517 129C541.7 130.3 566.3 129.7 591 126.8C615.7 124 640.3 119 664.8 118C689.3 117 713.7 120 738.2 120C762.7 120 787.3 117 812 119.3C836.7 121.7 861.3 129.3 886 129.2C910.7 129 935.3 121 947.7 117L960 113L960 0L947.7 0C935.3 0 910.7 0 886 0C861.3 0 836.7 0 812 0C787.3 0 762.7 0 738.2 0C713.7 0 689.3 0 664.8 0C640.3 0 615.7 0 591 0C566.3 0 541.7 0 517 0C492.3 0 467.7 0 443 0C418.3 0 393.7 0 369 0C344.3 0 319.7 0 295.2 0C270.7 0 246.3 0 221.8 0C197.3 0 172.7 0 148 0C123.3 0 98.7 0 74 0C49.3 0 24.7 0 12.3 0L0 0Z" fill="#eff1f5">
	</path>
	<path d="M0 90L12.3 89.3C24.7 88.7 49.3 87.3 74 87.3C98.7 87.3 123.3 88.7 148 89.8C172.7 91 197.3 92 221.8 91.7C246.3 91.3 270.7 89.7 295.2 90.8C319.7 92 344.3 96 369 100.5C393.7 105 418.3 110 443 109.2C467.7 108.3 492.3 101.7 517 101C541.7 100.3 566.3 105.7 591 107.5C615.7 109.3 640.3 107.7 664.8 103.7C689.3 99.7 713.7 93.3 738.2 92.5C762.7 91.7 787.3 96.3 812 100.7C836.7 105 861.3 109 886 109.5C910.7 110 935.3 107 947.7 105.5L960 104L960 0L947.7 0C935.3 0 910.7 0 886 0C861.3 0 836.7 0 812 0C787.3 0 762.7 0 738.2 0C713.7 0 689.3 0 664.8 0C640.3 0 615.7 0 591 0C566.3 0 541.7 0 517 0C492.3 0 467.7 0 443 0C418.3 0 393.7 0 369 0C344.3 0 319.7 0 295.2 0C270.7 0 246.3 0 221.8 0C197.3 0 172.7 0 148 0C123.3 0 98.7 0 74 0C49.3 0 24.7 0 12.3 0L0 0Z" fill="#e6e8ee">
	</path>
	<path d="M0 78L12.3 78.2C24.7 78.3 49.3 78.7 74 76C98.7 73.3 123.3 67.7 148 64.5C172.7 61.3 197.3 60.7 221.8 61.5C246.3 62.3 270.7 64.7 295.2 68.7C319.7 72.7 344.3 78.3 369 80.3C393.7 82.3 418.3 80.7 443 77.5C467.7 74.3 492.3 69.7 517 70.5C541.7 71.3 566.3 77.7 591 78.8C615.7 80 640.3 76 664.8 74.7C689.3 73.3 713.7 74.7 738.2 73.8C762.7 73 787.3 70 812 67.2C836.7 64.3 861.3 61.7 886 65.3C910.7 69 935.3 79 947.7 84L960 89L960 0L947.7 0C935.3 0 910.7 0 886 0C861.3 0 836.7 0 812 0C787.3 0 762.7 0 738.2 0C713.7 0 689.3 0 664.8 0C640.3 0 615.7 0 591 0C566.3 0 541.7 0 517 0C492.3 0 467.7 0 443 0C418.3 0 393.7 0 369 0C344.3 0 319.7 0 295.2 0C270.7 0 246.3 0 221.8 0C197.3 0 172.7 0 148 0C123.3 0 98.7 0 74 0C49.3 0 24.7 0 12.3 0L0 0Z" fill="#dde0e7">
	</path>
	<path d="M0 63L12.3 58.5C24.7 54 49.3 45 74 44.5C98.7 44 123.3 52 148 54.5C172.7 57 197.3 54 221.8 52.7C246.3 51.3 270.7 51.7 295.2 49.2C319.7 46.7 344.3 41.3 369 43.7C393.7 46 418.3 56 443 55.7C467.7 55.3 492.3 44.7 517 43.5C541.7 42.3 566.3 50.7 591 55.5C615.7 60.3 640.3 61.7 664.8 59C689.3 56.3 713.7 49.7 738.2 44.7C762.7 39.7 787.3 36.3 812 39.3C836.7 42.3 861.3 51.7 886 56.8C910.7 62 935.3 63 947.7 63.5L960 64L960 0L947.7 0C935.3 0 910.7 0 886 0C861.3 0 836.7 0 812 0C787.3 0 762.7 0 738.2 0C713.7 0 689.3 0 664.8 0C640.3 0 615.7 0 591 0C566.3 0 541.7 0 517 0C492.3 0 467.7 0 443 0C418.3 0 393.7 0 369 0C344.3 0 319.7 0 295.2 0C270.7 0 246.3 0 221.8 0C197.3 0 172.7 0 148 0C123.3 0 98.7 0 74 0C49.3 0 24.7 0 12.3 0L0 0Z" fill="#d4d8e0">
	</path>
	<path d="M0 18L12.3 21C24.7 24 49.3 30 74 29.3C98.7 28.7 123.3 21.3 148 18.8C172.7 16.3 197.3 18.7 221.8 22C246.3 25.3 270.7 29.7 295.2 29.3C319.7 29 344.3 24 369 20C393.7 16 418.3 13 443 13.3C467.7 13.7 492.3 17.3 517 22C541.7 26.7 566.3 32.3 591 31.7C615.7 31 640.3 24 664.8 22.8C689.3 21.7 713.7 26.3 738.2 28.2C762.7 30 787.3 29 812 29.5C836.7 30 861.3 32 886 28.5C910.7 25 935.3 16 947.7 11.5L960 7L960 0L947.7 0C935.3 0 910.7 0 886 0C861.3 0 836.7 0 812 0C787.3 0 762.7 0 738.2 0C713.7 0 689.3 0 664.8 0C640.3 0 615.7 0 591 0C566.3 0 541.7 0 517 0C492.3 0 467.7 0 443 0C418.3 0 393.7 0 369 0C344.3 0 319.7 0 295.2 0C270.7 0 246.3 0 221.8 0C197.3 0 172.7 0 148 0C123.3 0 98.7 0 74 0C49.3 0 24.7 0 12.3 0L0 0Z" fill="#ccd0da">
	</path>
</svg>
